<svg height="512" width="512"
  xmlns="http://www.w3.org/2000/svg">
      <style type="text/css"><![CDATA[.toggle{fill: #FF9E04;}]]></style>
  <g class="toggle">
  <path d="M473.534 60.708H88.775a7.5 7.5 0 000 15h384.759c12.939 0 23.466 10.527 23.466 23.466v46.991H15V99.174c0-12.939 10.527-23.466 23.466-23.466H50.38a7.5 7.5 0 000-15H38.466C17.256 60.708 0 77.964 0 99.174v313.653c0 21.21 17.256 38.466 38.466 38.466h129.179a7.5 7.5 0 000-15H38.466C25.527 436.292 15 425.765 15 412.826V161.165h482v251.662c0 12.939-10.527 23.466-23.466 23.466H205.189a7.5 7.5 0 000 15h268.345c21.21 0 38.466-17.256 38.466-38.466V99.174c0-21.21-17.256-38.466-38.466-38.466z"/>
  <circle cx="63.59" cy="110.936" transform="rotate(-45 63.574 110.956)" r="13.892"/>
  <circle cx="106.326" cy="110.936" transform="rotate(-45 106.314 110.965)" r="13.892"/>
  <circle cx="149.063" cy="110.936" transform="rotate(-45 149.054 110.972)" r="13.892"/>
  <path d="M227.569 366.711v-8.147c10.553-7.725 17.425-20.196 17.425-34.247s-6.871-26.522-17.425-34.247V202.8c0-13.785-11.215-25-25-25s-25 11.215-25 25v87.271c-10.553 7.725-17.425 20.196-17.425 34.247s6.871 26.522 17.425 34.247v8.147c0 13.785 11.215 25 25 25s25-11.216 25-25.001zm-35-163.911c0-5.514 4.486-10 10-10s10 4.486 10 10v80.294c-3.209-.779-6.555-1.201-10-1.201s-6.791.423-10 1.201zm10 94.092c15.122 0 27.425 12.303 27.425 27.425s-12.303 27.425-27.425 27.425-27.425-12.303-27.425-27.425 12.303-27.425 27.425-27.425zm-10 69.819v-1.171c3.209.779 6.555 1.201 10 1.201s6.791-.423 10-1.201v1.171c0 5.514-4.486 10-10 10s-10-4.486-10-10zM309.887 177.8c-13.785 0-25 11.215-25 25v25.848c-10.553 7.725-17.425 20.196-17.425 34.247s6.871 26.522 17.425 34.247v69.57c0 13.785 11.215 25 25 25s25-11.215 25-25v-69.538c8.527-6.216 14.702-15.563 16.725-26.569a7.5 7.5 0 00-6.021-8.732 7.497 7.497 0 00-8.732 6.021c-2.389 12.996-13.732 22.428-26.972 22.428-15.122 0-27.425-12.303-27.425-27.425s12.303-27.425 27.425-27.425a27.281 27.281 0 0115.329 4.679 7.498 7.498 0 009.671-11.336V202.8c0-13.786-11.215-25-25-25zm10 126.322v62.589c0 5.514-4.486 10-10 10s-10-4.486-10-10v-62.593a42.33 42.33 0 0010 1.201 42.449 42.449 0 0010-1.197zm-20-82.451V202.8c0-5.514 4.486-10 10-10s10 4.486 10 10v18.863a42.382 42.382 0 00-20 .008zM417.206 177.8c-13.785 0-25 11.215-25 25v25.848c-10.554 7.725-17.425 20.196-17.425 34.247s6.872 26.522 17.425 34.247v69.569c0 13.785 11.215 25 25 25s25-11.215 25-25v-69.57c10.553-7.725 17.425-20.196 17.425-34.247s-6.871-26.522-17.425-34.247V202.8c0-13.786-11.215-25-25-25zm-10 25c0-5.514 4.486-10 10-10s10 4.486 10 10v18.872c-3.209-.779-6.555-1.201-10-1.201s-6.791.423-10 1.201zm20 163.911c0 5.514-4.486 10-10 10s-10-4.486-10-10v-62.593c3.209.779 6.555 1.201 10 1.201s6.791-.423 10-1.201zm-10-76.391c-15.123 0-27.425-12.303-27.425-27.425s12.303-27.425 27.425-27.425 27.425 12.303 27.425 27.425-12.303 27.425-27.425 27.425zM94.794 391.711c13.785 0 25-11.215 25-25v-69.569c10.554-7.725 17.425-20.196 17.425-34.247s-6.872-26.522-17.425-34.247V202.8c0-13.785-11.215-25-25-25s-25 11.215-25 25v25.848c-10.553 7.725-17.425 20.196-17.425 34.247s6.871 26.522 17.425 34.247v69.57c0 13.784 11.215 24.999 25 24.999zm10-25c0 5.514-4.486 10-10 10s-10-4.486-10-10v-62.593c3.209.779 6.555 1.201 10 1.201s6.791-.423 10-1.201zm-20-163.911c0-5.514 4.486-10 10-10s10 4.486 10 10v18.872c-3.209-.779-6.555-1.201-10-1.201s-6.791.423-10 1.201zm10 32.67c15.123 0 27.425 12.303 27.425 27.425s-12.303 27.425-27.425 27.425-27.425-12.303-27.425-27.425 12.303-27.425 27.425-27.425z"/>
  </g>
</svg>