<svg xmlns="http://www.w3.org/2000/svg" xmlns:xlink="http://www.w3.org/1999/xlink" width="665" height="378.5" viewBox="0 0 665 378.5">
  <defs>
    <filter id="Rectangle_119" x="0" y="4.5" width="665" height="374" filterUnits="userSpaceOnUse">
      <feOffset dy="8" input="SourceAlpha"/>
      <feGaussianBlur stdDeviation="7.5" result="blur"/>
      <feFlood flood-color="#2b2f4a" flood-opacity="0.098"/>
      <feComposite operator="in" in2="blur"/>
      <feComposite in="SourceGraphic"/>
    </filter>
    <linearGradient id="linear-gradient" x1="0.5" x2="0.5" y2="0.774" gradientUnits="objectBoundingBox">
      <stop offset="0" stop-color="#3f4564"/>
      <stop offset="1" stop-color="#262a41"/>
    </linearGradient>
  </defs>
  <g id="Component_48_1" data-name="Component 48 – 1" transform="translate(22.5)">
    <g transform="matrix(1, 0, 0, 1, -22.5, 0)" filter="url(#Rectangle_119)">
      <rect id="Rectangle_119-2" data-name="Rectangle 119" width="620" height="329" rx="20" transform="translate(22.5 19)" fill="#fff"/>
    </g>
    <path id="Path_129" data-name="Path 129" d="M20,0H176a20,20,0,0,1,20,20V309a20,20,0,0,1-20,20H20A20,20,0,0,1,0,309V20A20,20,0,0,1,20,0Z" transform="translate(212)" fill="url(#linear-gradient)"/>
    <g id="Group_148" data-name="Group 148" transform="translate(-350 -1901)">
      <text id="DAO" transform="translate(398 1978.118)" fill="#262a41" font-size="16" font-family="Lato-Heavy, Lato" font-weight="800" letter-spacing="0.02em"><tspan x="-18.144" y="0">DAO</tspan></text>
      <g id="Group_106" data-name="Group 106">
        <g id="Group_87" data-name="Group 87" transform="translate(-25.667 232.533)">
          <rect id="Rectangle_49" data-name="Rectangle 49" width="6.652" height="2.079" rx="1.039" transform="translate(407.211 1796.29) rotate(48)" fill="#262a41"/>
          <rect id="Rectangle_50" data-name="Rectangle 50" width="13.72" height="2.079" rx="1.039" transform="translate(409.016 1800.954) rotate(-45)" fill="#262a41"/>
        </g>
        <text id="Decentralized_and_Transparent" data-name="Decentralized and Transparent" transform="translate(405 2019.658)" fill="#262a41" font-size="12" font-family="Lato-Light, Lato" font-weight="300" letter-spacing="0.02em"><tspan x="0" y="12">Decentralized and </tspan><tspan x="0" y="27">Transparent</tspan></text>
        <g id="Group_87-2" data-name="Group 87" transform="translate(-25.667 277.987)">
          <rect id="Rectangle_49-2" data-name="Rectangle 49" width="6.652" height="2.079" rx="1.039" transform="translate(407.211 1796.29) rotate(48)" fill="#262a41"/>
          <rect id="Rectangle_50-2" data-name="Rectangle 50" width="13.72" height="2.079" rx="1.039" transform="translate(409.016 1800.954) rotate(-45)" fill="#262a41"/>
        </g>
        <text id="Guaranteed_Execution" data-name="Guaranteed Execution" transform="translate(405 2065.112)" fill="#262a41" font-size="12" font-family="Lato-Light, Lato" font-weight="300" letter-spacing="0.02em"><tspan x="0" y="12">Guaranteed Execution</tspan></text>
        <g id="Group_87-3" data-name="Group 87" transform="translate(-25.667 323.44)">
          <rect id="Rectangle_49-3" data-name="Rectangle 49" width="6.652" height="2.079" rx="1.039" transform="translate(407.211 1796.29) rotate(48)" fill="#bcc3c9"/>
          <rect id="Rectangle_50-3" data-name="Rectangle 50" width="13.72" height="2.079" rx="1.039" transform="translate(409.016 1800.954) rotate(-45)" fill="#bcc3c9"/>
        </g>
        <text id="Result_Oriented" data-name="Result Oriented" transform="translate(405 2110.565)" fill="#bcc3c9" font-size="12" font-family="Lato-Light, Lato" font-weight="300" letter-spacing="0.02em"><tspan x="0" y="12">Result Oriented</tspan></text>
        <g id="Group_87-4" data-name="Group 87" transform="translate(-25.667 368.894)">
          <rect id="Rectangle_49-4" data-name="Rectangle 49" width="6.652" height="2.079" rx="1.039" transform="translate(407.211 1796.29) rotate(48)" fill="#bcc3c9"/>
          <rect id="Rectangle_50-4" data-name="Rectangle 50" width="13.72" height="2.079" rx="1.039" transform="translate(409.016 1800.954) rotate(-45)" fill="#bcc3c9"/>
        </g>
        <text id="Versatile_Structure" data-name="Versatile Structure" transform="translate(405 2156.019)" fill="#bcc3c9" font-size="12" font-family="Lato-Light, Lato" font-weight="300" letter-spacing="0.02em"><tspan x="0" y="12">Versatile Structure</tspan></text>
      </g>
    </g>
    <g id="Group_147" data-name="Group 147" transform="translate(-363.5 -1887)">
      <text id="DPO" transform="translate(615 1950.981)" fill="#fff" font-size="16" font-family="Lato-Heavy, Lato" font-weight="800" letter-spacing="0.02em"><tspan x="-17.912" y="0">DPO</tspan></text>
      <g id="Group_108" data-name="Group 108">
        <g id="Group_87-5" data-name="Group 87" transform="translate(191.333 212.533)">
          <rect id="Rectangle_49-5" data-name="Rectangle 49" width="6.652" height="2.079" rx="1.039" transform="translate(407.211 1796.29) rotate(48)" fill="#fff"/>
          <rect id="Rectangle_50-5" data-name="Rectangle 50" width="13.72" height="2.079" rx="1.039" transform="translate(409.016 1800.954) rotate(-45)" fill="#fff"/>
        </g>
        <text id="Decentralized_and_Transparent-2" data-name="Decentralized and Transparent" transform="translate(622 2000.658)" fill="#fff" font-size="12" font-family="Lato-Medium, Lato" font-weight="500" letter-spacing="0.02em"><tspan x="0" y="12">Decentralized and </tspan><tspan x="0" y="27">Transparent</tspan></text>
        <g id="Group_87-6" data-name="Group 87" transform="translate(191.333 257.987)">
          <rect id="Rectangle_49-6" data-name="Rectangle 49" width="6.652" height="2.079" rx="1.039" transform="translate(407.211 1796.29) rotate(48)" fill="#fff"/>
          <rect id="Rectangle_50-6" data-name="Rectangle 50" width="13.72" height="2.079" rx="1.039" transform="translate(409.016 1800.954) rotate(-45)" fill="#fff"/>
        </g>
        <text id="Guaranteed_Execution-2" data-name="Guaranteed Execution" transform="translate(622 2049.112)" fill="#fff" font-size="12" font-family="Lato-Medium, Lato" font-weight="500" letter-spacing="0.02em"><tspan x="0" y="12">Guaranteed Execution</tspan></text>
        <g id="Group_87-7" data-name="Group 87" transform="translate(191.333 303.44)">
          <rect id="Rectangle_49-7" data-name="Rectangle 49" width="6.652" height="2.079" rx="1.039" transform="translate(407.211 1796.29) rotate(48)" fill="#fff"/>
          <rect id="Rectangle_50-7" data-name="Rectangle 50" width="13.72" height="2.079" rx="1.039" transform="translate(409.016 1800.954) rotate(-45)" fill="#fff"/>
        </g>
        <text id="Result_Oriented-2" data-name="Result Oriented" transform="translate(622 2095.565)" fill="#fff" font-size="12" font-family="Lato-Medium, Lato" font-weight="500" letter-spacing="0.02em"><tspan x="0" y="12">Result Oriented</tspan></text>
        <g id="Group_87-8" data-name="Group 87" transform="translate(191.333 348.894)">
          <rect id="Rectangle_49-8" data-name="Rectangle 49" width="6.652" height="2.079" rx="1.039" transform="translate(407.211 1796.29) rotate(48)" fill="#fff"/>
          <rect id="Rectangle_50-8" data-name="Rectangle 50" width="13.72" height="2.079" rx="1.039" transform="translate(409.016 1800.954) rotate(-45)" fill="#fff"/>
        </g>
        <text id="Versatile_Structure-2" data-name="Versatile Structure" transform="translate(622 2140.019)" fill="#fff" font-size="12" font-family="Lato-Medium, Lato" font-weight="500" letter-spacing="0.02em"><tspan x="0" y="12">Versatile Structure</tspan></text>
      </g>
    </g>
    <g id="Group_146" data-name="Group 146" transform="translate(-360 -1901)">
      <text id="Traditional_Organization" data-name="Traditional
Organization" transform="translate(798 1968.618)" fill="#262a41" font-size="16" font-family="Lato-Heavy, Lato" font-weight="800" letter-spacing="0.02em"><tspan x="0" y="0">Traditional</tspan><tspan x="0" y="19">Organization</tspan></text>
      <g id="Group_110" data-name="Group 110" transform="translate(418)">
        <g id="Group_87-9" data-name="Group 87" transform="translate(-25.667 232.533)">
          <rect id="Rectangle_49-9" data-name="Rectangle 49" width="6.652" height="2.079" rx="1.039" transform="translate(407.211 1796.29) rotate(48)" fill="#bcc3c9"/>
          <rect id="Rectangle_50-9" data-name="Rectangle 50" width="13.72" height="2.079" rx="1.039" transform="translate(409.016 1800.954) rotate(-45)" fill="#bcc3c9"/>
        </g>
        <text id="Decentralized_and_Transparent-3" data-name="Decentralized and Transparent" transform="translate(405 2019.658)" fill="#bcc3c9" font-size="12" font-family="Lato-Light, Lato" font-weight="300" letter-spacing="0.02em"><tspan x="0" y="12">Decentralized and </tspan><tspan x="0" y="27">Transparent</tspan></text>
        <g id="Group_87-10" data-name="Group 87" transform="translate(-25.667 277.987)">
          <rect id="Rectangle_49-10" data-name="Rectangle 49" width="6.652" height="2.079" rx="1.039" transform="translate(407.211 1796.29) rotate(48)" fill="#bcc3c9"/>
          <rect id="Rectangle_50-10" data-name="Rectangle 50" width="13.72" height="2.079" rx="1.039" transform="translate(409.016 1800.954) rotate(-45)" fill="#bcc3c9"/>
        </g>
        <text id="Guaranteed_Execution-3" data-name="Guaranteed Execution" transform="translate(405 2065.112)" fill="#bcc3c9" font-size="12" font-family="Lato-Light, Lato" font-weight="300" letter-spacing="0.02em"><tspan x="0" y="12">Guaranteed Execution</tspan></text>
        <g id="Group_87-11" data-name="Group 87" transform="translate(-25.667 323.44)">
          <rect id="Rectangle_49-11" data-name="Rectangle 49" width="6.652" height="2.079" rx="1.039" transform="translate(407.211 1796.29) rotate(48)" fill="#262a41"/>
          <rect id="Rectangle_50-11" data-name="Rectangle 50" width="13.72" height="2.079" rx="1.039" transform="translate(409.016 1800.954) rotate(-45)" fill="#262a41"/>
        </g>
        <text id="Result_Oriented-3" data-name="Result Oriented" transform="translate(405 2110.565)" fill="#262a41" font-size="12" font-family="Lato-Light, Lato" font-weight="300" letter-spacing="0.02em"><tspan x="0" y="12">Result Oriented</tspan></text>
        <g id="Group_87-12" data-name="Group 87" transform="translate(-25.667 368.894)">
          <rect id="Rectangle_49-12" data-name="Rectangle 49" width="6.652" height="2.079" rx="1.039" transform="translate(407.211 1796.29) rotate(48)" fill="#262a41"/>
          <rect id="Rectangle_50-12" data-name="Rectangle 50" width="13.72" height="2.079" rx="1.039" transform="translate(409.016 1800.954) rotate(-45)" fill="#262a41"/>
        </g>
        <text id="Versatile_Structure-3" data-name="Versatile Structure" transform="translate(405 2156.019)" fill="#262a41" font-size="12" font-family="Lato-Light, Lato" font-weight="300" letter-spacing="0.02em"><tspan x="0" y="12">Versatile Structure</tspan></text>
      </g>
    </g>
  </g>
</svg>
