<svg id="Node_icon" xmlns="http://www.w3.org/2000/svg" width="51" height="51" viewBox="0 0 51 51">
  <rect id="Rectangle_105" data-name="Rectangle 105" width="51" height="51" fill="none"/>
  <g id="Group_135" data-name="Group 135" transform="translate(-6725 -3372)">
    <g id="Rectangle_109" data-name="Rectangle 109" transform="translate(6725 3412)" fill="none" stroke="#262a41" stroke-width="2">
      <rect width="51" height="7" stroke="none"/>
      <rect x="1" y="1" width="49" height="5" fill="none"/>
    </g>
    <g id="Group_133" data-name="Group 133">
      <g id="Rectangle_106" data-name="Rectangle 106" transform="translate(6725 3372)" fill="#fff" stroke="#262a41" stroke-width="2">
        <rect width="51" height="15" rx="2" stroke="none"/>
        <rect x="1" y="1" width="49" height="13" rx="1" fill="none"/>
      </g>
      <g id="Ellipse_33" data-name="Ellipse 33" transform="translate(6730 3378)" fill="#fff" stroke="#ff8b00" stroke-width="1">
        <circle cx="2" cy="2" r="2" stroke="none"/>
        <circle cx="2" cy="2" r="1.5" fill="none"/>
      </g>
      <g id="Ellipse_34" data-name="Ellipse 34" transform="translate(6742 3378)" fill="#fff" stroke="#ff8b00" stroke-width="1">
        <circle cx="2" cy="2" r="2" stroke="none"/>
        <circle cx="2" cy="2" r="1.5" fill="none"/>
      </g>
      <g id="Ellipse_35" data-name="Ellipse 35" transform="translate(6736 3378)" fill="#fff" stroke="#ff8b00" stroke-width="1">
        <circle cx="2" cy="2" r="2" stroke="none"/>
        <circle cx="2" cy="2" r="1.5" fill="none"/>
      </g>
      <line id="Line_13" data-name="Line 13" x2="14" transform="translate(6755.5 3380)" fill="none" stroke="#ff8b00" stroke-linecap="round" stroke-width="2"/>
    </g>
    <g id="Group_134" data-name="Group 134" transform="translate(0 18)">
      <g id="Rectangle_106-2" data-name="Rectangle 106" transform="translate(6725 3372)" fill="#fff" stroke="#262a41" stroke-width="2">
        <rect width="51" height="15" rx="2" stroke="none"/>
        <rect x="1" y="1" width="49" height="13" rx="1" fill="none"/>
      </g>
      <g id="Ellipse_33-2" data-name="Ellipse 33" transform="translate(6730 3378)" fill="#fff" stroke="#ff8b00" stroke-width="1">
        <circle cx="2" cy="2" r="2" stroke="none"/>
        <circle cx="2" cy="2" r="1.5" fill="none"/>
      </g>
      <g id="Ellipse_34-2" data-name="Ellipse 34" transform="translate(6742 3378)" fill="#fff" stroke="#ff8b00" stroke-width="1">
        <circle cx="2" cy="2" r="2" stroke="none"/>
        <circle cx="2" cy="2" r="1.5" fill="none"/>
      </g>
      <g id="Ellipse_35-2" data-name="Ellipse 35" transform="translate(6736 3378)" fill="#fff" stroke="#ff8b00" stroke-width="1">
        <circle cx="2" cy="2" r="2" stroke="none"/>
        <circle cx="2" cy="2" r="1.5" fill="none"/>
      </g>
      <line id="Line_13-2" data-name="Line 13" x2="14" transform="translate(6755.5 3380)" fill="none" stroke="#ff8b00" stroke-linecap="round" stroke-width="2"/>
    </g>
    <line id="Line_14" data-name="Line 14" y2="4" transform="translate(6735.5 3386.5)" fill="none" stroke="#262a41" stroke-width="2"/>
    <line id="Line_15" data-name="Line 15" y2="4" transform="translate(6765.5 3386)" fill="none" stroke="#262a41" stroke-width="2"/>
    <g id="Rectangle_107" data-name="Rectangle 107" transform="translate(6742 3409)" fill="#fff" stroke="#262a41" stroke-width="2">
      <rect width="17" height="13" rx="2" stroke="none"/>
      <rect x="1" y="1" width="15" height="11" rx="1" fill="none"/>
    </g>
    <rect id="Rectangle_108" data-name="Rectangle 108" width="7" height="3" rx="1" transform="translate(6747 3414)" fill="#ff8b00"/>
    <line id="Line_16" data-name="Line 16" y2="4" transform="translate(6750.5 3405)" fill="none" stroke="#262a41" stroke-width="2"/>
  </g>
</svg>
