<svg id="Goal_icon" xmlns="http://www.w3.org/2000/svg" width="51" height="51" viewBox="0 0 51 51">
  <g id="Ellipse_29" data-name="Ellipse 29" fill="#fff" stroke="#262a41" stroke-width="2">
    <circle cx="25.5" cy="25.5" r="25.5" stroke="none"/>
    <circle cx="25.5" cy="25.5" r="24.5" fill="none"/>
  </g>
  <g id="Ellipse_30" data-name="Ellipse 30" transform="translate(8 8)" fill="#fff" stroke="#ffa521" stroke-width="2">
    <circle cx="17.5" cy="17.5" r="17.5" stroke="none"/>
    <circle cx="17.5" cy="17.5" r="16.5" fill="none"/>
  </g>
  <g id="Ellipse_31" data-name="Ellipse 31" transform="translate(17 17)" fill="#fff" stroke="#ffa521" stroke-width="2">
    <circle cx="8.5" cy="8.5" r="8.5" stroke="none"/>
    <circle cx="8.5" cy="8.5" r="7.5" fill="none"/>
  </g>
  <g id="Path_102" data-name="Path 102" transform="translate(51 10.959) rotate(137)" fill="#fff">
    <path d="M 14.00000381469727 12 L 2.000004053115845 12 C 1.558318734169006 12 1.182597279548645 11.71216773986816 1.050564646720886 11.31421852111816 L 4.572664260864258 7.244569778442383 L 5.127804279327393 6.603119850158691 L 4.585453987121582 5.950829982757568 L 1.047377586364746 1.695556163787842 C 1.17646861076355 1.292563915252686 1.554717659950256 1 2.000004053115845 1 L 14.00000381469727 1 C 14.25874996185303 1 14.39455318450928 1.053348660469055 14.44263076782227 1.084676027297974 L 14.46716403961182 1.127300024032593 C 15.77134132385254 3.393312692642212 17.22948837280273 5.959726333618164 17.44587516784668 6.39677095413208 L 14.68948841094971 11.76400947570801 C 14.62486457824707 11.83147048950195 14.42123126983643 12 14.00000381469727 12 Z" stroke="none"/>
    <path d="M 2.601015090942383 2 L 5.354384422302246 5.311500072479248 L 6.439094543457031 6.616079807281494 L 5.328804016113281 7.898970127105713 L 2.645000457763672 11 L 13.95768737792969 11 L 16.31653594970703 6.406857013702393 C 15.84675884246826 5.554192543029785 14.8106803894043 3.732002258300781 13.81545639038086 2 L 2.601015090942383 2 M 2.000003814697266 0 L 14.00000381469727 0 C 15.10457420349121 0 15.33386421203613 0.6284799575805664 15.33386421203613 0.6284799575805664 C 15.33386421203613 0.6284799575805664 18.2100944519043 5.625919818878174 18.37983322143555 6.033659934997559 C 18.54956436157227 6.441410064697266 18.39221382141113 6.743030071258545 18.39221382141113 6.743030071258545 L 15.53761386871338 12.30150032043457 C 15.53761386871338 12.30150032043457 15.10457420349121 13 14.00000381469727 13 L 2.000003814697266 13 C 0.8954334259033203 13 3.814697265625e-06 12.10457038879395 3.814697265625e-06 11 L 3.816524505615234 6.590159893035889 L 3.814697265625e-06 2 C 3.814697265625e-06 0.8954296112060547 0.8954334259033203 0 2.000003814697266 0 Z" stroke="none" fill="#3c446c"/>
  </g>
  <line id="Line_12" data-name="Line 12" y1="15.899" x2="17" transform="translate(25.5 9.5)" fill="none" stroke="#3c446c" stroke-linecap="round" stroke-width="2"/>
</svg>
