<svg xmlns="http://www.w3.org/2000/svg" width="54.626" height="52.946" viewBox="0 0 54.626 52.946">
  <g id="Organization_icon" transform="translate(1.05 1)">
    <g id="Group_101" data-name="Group 101" transform="translate(-1437.248 -975.133)">
      <g id="Group_57" data-name="Group 57" transform="translate(1454.764 975.133)">
        <path id="Path_55" data-name="Path 55" d="M5.4,0A5.4,5.4,0,1,1,0,5.4,5.4,5.4,0,0,1,5.4,0Z" transform="translate(3.352 0)" fill="none" stroke="#ffa521" stroke-width="2"/>
        <path id="Path_56" data-name="Path 56" d="M3208.916,798.017a7.936,7.936,0,0,1,2.444-6.608c1.072-.967,3.121-1.814,6.32-1.78,10,.105,8.647,8.388,8.647,8.388" transform="translate(-3208.873 -778.219)" fill="none" stroke="#ffa521" stroke-linecap="round" stroke-width="2"/>
      </g>
    </g>
    <g id="Group_102" data-name="Group 102" transform="translate(-1454.764 -944.133)">
      <g id="Group_57-2" data-name="Group 57" transform="translate(1454.764 975.133)">
        <path id="Path_55-2" data-name="Path 55" d="M5.4,0A5.4,5.4,0,1,1,0,5.4,5.4,5.4,0,0,1,5.4,0Z" transform="translate(3.352 0)" fill="none" stroke="#ffa521" stroke-width="2"/>
        <path id="Path_56-2" data-name="Path 56" d="M3208.916,798.017a7.936,7.936,0,0,1,2.444-6.608c1.072-.967,3.121-1.814,6.32-1.78,10,.105,8.647,8.388,8.647,8.388" transform="translate(-3208.873 -778.219)" fill="none" stroke="#ffa521" stroke-linecap="round" stroke-width="2"/>
      </g>
    </g>
    <g id="Group_103" data-name="Group 103" transform="translate(-1419.733 -944.133)">
      <g id="Group_57-3" data-name="Group 57" transform="translate(1454.764 975.133)">
        <path id="Path_55-3" data-name="Path 55" d="M5.4,0A5.4,5.4,0,1,1,0,5.4,5.4,5.4,0,0,1,5.4,0Z" transform="translate(3.352 0)" fill="none" stroke="#ffa521" stroke-width="2"/>
        <path id="Path_56-3" data-name="Path 56" d="M3208.916,798.017a7.936,7.936,0,0,1,2.444-6.608c1.072-.967,3.121-1.814,6.32-1.78,10,.105,8.647,8.388,8.647,8.388" transform="translate(-3208.873 -778.219)" fill="none" stroke="#ffa521" stroke-linecap="round" stroke-width="2"/>
      </g>
    </g>
    <path id="Path_96" data-name="Path 96" d="M5172.868,1010.013a9.264,9.264,0,0,1,5.351-8.593" transform="translate(-5166.781 -985.917)" fill="none" stroke="#2b2f4a" stroke-linecap="round" stroke-width="2"/>
    <path id="Path_99" data-name="Path 99" d="M5178.21,1010.013a9.264,9.264,0,0,0-5.351-8.593" transform="translate(-5131.751 -985.917)" fill="none" stroke="#2b2f4a" stroke-linecap="round" stroke-width="2"/>
    <path id="Path_100" data-name="Path 100" d="M5178.21,1010.013a9.264,9.264,0,0,0-5.351-8.593" transform="translate(3485.018 -3938.391) rotate(120)" fill="none" stroke="#2b2f4a" stroke-linecap="round" stroke-width="2"/>
  </g>
</svg>
