<svg xmlns="http://www.w3.org/2000/svg" width="40.383" height="41.227" viewBox="0 0 40.383 41.227">
  <g id="blockchain_icon" transform="translate(-3.946)">
    <path id="Path_118" data-name="Path 118" d="M23.74,187.2l-.025-11.493-9.894-5.766-9.876,5.745.024,11.583,9.852,5.72Zm-8.915,2.887.018-8.047,6.877-4.017.018,8.03ZM13.82,172.257l6.91,4.028-6.887,4.023-6.911-4.043Zm-7.868,5.752,6.89,4.032-.018,8.058-6.856-3.981Z" transform="translate(0 -151.764)" fill="#262a41"/>
    <path id="Path_119" data-name="Path 119" d="M206.3,169.948l-9.876,5.745.025,11.583L206.3,193l9.917-5.789-.025-11.493Zm0,2.315,6.911,4.028-6.887,4.023-6.911-4.043Zm-7.868,5.752,6.889,4.032L205.3,190.1l-6.854-3.981Zm8.874,12.08.017-8.047,6.877-4.017.018,8.03Z" transform="translate(-171.889 -151.769)" fill="#262a41"/>
    <path id="Path_120" data-name="Path 120" d="M120.165,5.765,110.271,0,100.4,5.744l.024,11.584,9.852,5.72,9.918-5.789Zm-9.9-3.45,6.911,4.027-6.887,4.024-6.911-4.044ZM102.4,8.065l6.89,4.032-.017,8.058-6.856-3.98Zm8.873,12.081.017-8.047,6.877-4.018.018,8.03Z" transform="translate(-86.132)" fill="#262a41"/>
  </g>
</svg>
