<svg xmlns="http://www.w3.org/2000/svg" width="49.45" height="44.203" viewBox="0 0 49.45 44.203">
  <g id="Programmable_icon" transform="translate(0.511 1)">
    <path id="Path_50" data-name="Path 50" d="M1.385,0h44.68A1.385,1.385,0,0,1,47.45,1.385V28.94a1.385,1.385,0,0,1-1.385,1.385H1.385A1.385,1.385,0,0,1,0,28.94V1.385A1.385,1.385,0,0,1,1.385,0Z" transform="translate(0.489)" fill="none" stroke="#2b2f4a" stroke-width="2"/>
    <path id="Path_41" data-name="Path 41" d="M2865.426,794.444l-1.918,1.859-2.685,2.6-1.464,1.42,6.067,6.158" transform="translate(-2846.811 -786.744)" fill="none" stroke="#ffa521" stroke-linecap="round" stroke-width="2"/>
    <path id="Path_42" data-name="Path 42" d="M2859.36,794.444l4.6,4.463,1.464,1.42-6.066,6.158" transform="translate(-2827.727 -786.684)" fill="none" stroke="#ffa521" stroke-linecap="round" stroke-width="2"/>
    <path id="Path_43" data-name="Path 43" d="M2870.959,791.059l-3.266,8.126-2.542,6.32" transform="translate(-2936.979 -274.193) rotate(-10)" fill="none" stroke="#ffa521" stroke-linecap="round" stroke-width="2"/>
    <path id="Path_51" data-name="Path 51" d="M0,0H6.848V8.8H0Z" transform="translate(20.79 30.521)" fill="none" stroke="#2b2f4a" stroke-width="2"/>
    <path id="Path_52" data-name="Path 52" d="M.923,0H17.787a.923.923,0,0,1,.923.923V1.955a.923.923,0,0,1-.923.923H.923A.923.923,0,0,1,0,1.955V.923A.923.923,0,0,1,.923,0Z" transform="translate(14.859 39.325)" fill="none" stroke="#2b2f4a" stroke-width="2"/>
    <path id="Path_53" data-name="Path 53" d="M0,0H48.428" transform="translate(0 26.034)" fill="none" stroke="#2b2f4a" stroke-width="2"/>
  </g>
</svg>
