<svg id="Decntralized_icon" xmlns="http://www.w3.org/2000/svg" width="53" height="53" viewBox="0 0 53 53">
  <g id="Group_137" data-name="Group 137" transform="translate(-358 -968)">
    <g id="Rectangle_55" data-name="Rectangle 55" transform="matrix(-0.839, 0.545, -0.545, -0.839, 392.781, 978.859)" fill="#262a41" stroke="#2b2f4a" stroke-width="1">
      <rect width="24.151" height="2" stroke="none"/>
      <rect x="0.5" y="0.5" width="23.151" height="1" fill="none"/>
    </g>
    <g id="Rectangle_56" data-name="Rectangle 56" transform="matrix(0.276, 0.961, -0.961, 0.276, 400.235, 980.476)" fill="#262a41" stroke="#2b2f4a" stroke-width="1">
      <rect width="8" height="2" stroke="none"/>
      <rect x="0.5" y="0.5" width="7" height="1" fill="none"/>
    </g>
    <g id="Rectangle_58" data-name="Rectangle 58" transform="translate(387.26 1001.43) rotate(111)" fill="#262a41" stroke="#2b2f4a" stroke-width="1">
      <rect width="7.286" height="2" stroke="none"/>
      <rect x="0.5" y="0.5" width="6.286" height="1" fill="none"/>
    </g>
    <g id="Rectangle_59" data-name="Rectangle 59" transform="translate(371.225 996.992) rotate(53)" fill="#262a41" stroke="#2b2f4a" stroke-width="1">
      <rect width="15.556" height="2" stroke="none"/>
      <rect x="0.5" y="0.5" width="14.556" height="1" fill="none"/>
    </g>
    <g id="Rectangle_60" data-name="Rectangle 60" transform="translate(374.091 992.986) rotate(9)" fill="#262a41" stroke="#2b2f4a" stroke-width="1">
      <rect width="8.205" height="2" stroke="none"/>
      <rect x="0.5" y="0.5" width="7.205" height="1" fill="none"/>
    </g>
    <g id="Rectangle_61" data-name="Rectangle 61" transform="translate(373.002 980.626) rotate(116)" fill="#262a41" stroke="#2b2f4a" stroke-width="1">
      <rect width="9.459" height="2" stroke="none"/>
      <rect x="0.5" y="0.5" width="8.459" height="1" fill="none"/>
    </g>
    <g id="Rectangle_62" data-name="Rectangle 62" transform="matrix(-0.766, 0.643, -0.643, -0.766, 400.867, 999.423)" fill="#262a41" stroke="#2b2f4a" stroke-width="1">
      <rect width="16.232" height="2" stroke="none"/>
      <rect x="0.5" y="0.5" width="15.232" height="1" fill="none"/>
    </g>
    <g id="Rectangle_63" data-name="Rectangle 63" transform="matrix(-0.839, -0.545, 0.545, -0.839, 397.604, 991.261)" fill="#262a41" stroke="#2b2f4a" stroke-width="1">
      <rect width="21.973" height="2" stroke="none"/>
      <rect x="0.5" y="0.5" width="20.973" height="1" fill="none"/>
    </g>
    <g id="Rectangle_64" data-name="Rectangle 64" transform="translate(395.595 981.425) rotate(119)" fill="#262a41" stroke="#2b2f4a" stroke-width="1">
      <rect width="11.365" height="2" stroke="none"/>
      <rect x="0.5" y="0.5" width="10.365" height="1" fill="none"/>
    </g>
    <g id="Group_100" data-name="Group 100" transform="translate(1 -23)">
      <g id="Component_37_1" data-name="Component 37 – 1" transform="translate(366 991)">
        <circle id="Ellipse_27" data-name="Ellipse 27" cx="7.5" cy="7.5" r="7.5" fill="#fff"/>
        <g id="Ellipse_26" data-name="Ellipse 26" transform="translate(1 1)" fill="#fff" stroke="#ffa521" stroke-width="2">
          <circle cx="6.5" cy="6.5" r="6.5" stroke="none"/>
          <circle cx="6.5" cy="6.5" r="5.5" fill="none"/>
        </g>
      </g>
      <g id="Component_37_2" data-name="Component 37 – 2" transform="translate(389 991)">
        <circle id="Ellipse_27-2" data-name="Ellipse 27" cx="7.5" cy="7.5" r="7.5" fill="#fff"/>
        <g id="Ellipse_26-2" data-name="Ellipse 26" transform="translate(1 1)" fill="#fff" stroke="#ffa521" stroke-width="2">
          <circle cx="6.5" cy="6.5" r="6.5" stroke="none"/>
          <circle cx="6.5" cy="6.5" r="5.5" fill="none"/>
        </g>
      </g>
      <g id="Component_37_3" data-name="Component 37 – 3" transform="translate(394 1009)">
        <circle id="Ellipse_27-3" data-name="Ellipse 27" cx="7.5" cy="7.5" r="7.5" fill="#fff"/>
        <g id="Ellipse_26-3" data-name="Ellipse 26" transform="translate(1 1)" fill="#fff" stroke="#ffa521" stroke-width="2">
          <circle cx="6.5" cy="6.5" r="6.5" stroke="none"/>
          <circle cx="6.5" cy="6.5" r="5.5" fill="none"/>
        </g>
      </g>
      <g id="Component_37_4" data-name="Component 37 – 4" transform="translate(379 1011)">
        <circle id="Ellipse_27-4" data-name="Ellipse 27" cx="7.5" cy="7.5" r="7.5" fill="#fff"/>
        <g id="Ellipse_26-4" data-name="Ellipse 26" transform="translate(1 1)" fill="#fff" stroke="#ffa521" stroke-width="2">
          <circle cx="6.5" cy="6.5" r="6.5" stroke="none"/>
          <circle cx="6.5" cy="6.5" r="5.5" fill="none"/>
        </g>
      </g>
      <g id="Component_37_5" data-name="Component 37 – 5" transform="translate(376 1029)">
        <circle id="Ellipse_27-5" data-name="Ellipse 27" cx="7.5" cy="7.5" r="7.5" fill="#fff"/>
        <g id="Ellipse_26-5" data-name="Ellipse 26" transform="translate(1 1)" fill="#fff" stroke="#ffa521" stroke-width="2">
          <circle cx="6.5" cy="6.5" r="6.5" stroke="none"/>
          <circle cx="6.5" cy="6.5" r="5.5" fill="none"/>
        </g>
      </g>
      <g id="Component_37_6" data-name="Component 37 – 6" transform="translate(358 1009)">
        <circle id="Ellipse_27-6" data-name="Ellipse 27" cx="7.5" cy="7.5" r="7.5" fill="#fff"/>
        <g id="Ellipse_26-6" data-name="Ellipse 26" transform="translate(1 1)" fill="#fff" stroke="#ffa521" stroke-width="2">
          <circle cx="6.5" cy="6.5" r="6.5" stroke="none"/>
          <circle cx="6.5" cy="6.5" r="5.5" fill="none"/>
        </g>
      </g>
    </g>
  </g>
  <rect id="Rectangle_118" data-name="Rectangle 118" width="53" height="53" fill="none"/>
</svg>
