<svg xmlns="http://www.w3.org/2000/svg" width="41" height="41" viewBox="0 0 41 41">
  <g id="wrench_icon" transform="translate(-0.006)">
    <path id="Path_121" data-name="Path 121" d="M5.122,41A5.139,5.139,0,0,1,1.5,39.515a5.168,5.168,0,0,1-.005-7.255L17.777,15.991a11.763,11.763,0,0,1-.694-4.029A11.976,11.976,0,0,1,29.045,0,11.661,11.661,0,0,1,33.6.9a.855.855,0,0,1,.272,1.391l-5.21,5.212.971,3.87,3.869.971,5.212-5.212a.836.836,0,0,1,.769-.234.854.854,0,0,1,.624.506,11.669,11.669,0,0,1,.9,4.554A11.976,11.976,0,0,1,29.045,23.923a11.82,11.82,0,0,1-4.028-.692L8.751,39.512A5.149,5.149,0,0,1,5.122,41ZM29.045,1.709A10.263,10.263,0,0,0,18.792,11.961a10.012,10.012,0,0,0,.771,3.906.857.857,0,0,1-.183.936L2.7,33.464A3.422,3.422,0,1,0,7.547,38.3L24.205,21.626a.85.85,0,0,1,.936-.183,9.947,9.947,0,0,0,3.9.771,10.263,10.263,0,0,0,9.907-12.9L34.364,13.9a.851.851,0,0,1-.812.226l-4.836-1.213a.856.856,0,0,1-.62-.62L26.883,7.455a.856.856,0,0,1,.224-.813l4.588-4.588a10.084,10.084,0,0,0-2.65-.345Z" transform="translate(0)"/>
  </g>
</svg>
