<?xml version="1.0" encoding="UTF-8" standalone="no"?>
<!DOCTYPE svg PUBLIC "-//W3C//DTD SVG 1.1//EN" "http://www.w3.org/Graphics/SVG/1.1/DTD/svg11.dtd">
<svg width="100%" height="100%" viewBox="0 0 139 49" version="1.1" xmlns="http://www.w3.org/2000/svg" xmlns:xlink="http://www.w3.org/1999/xlink" xml:space="preserve" xmlns:serif="http://www.serif.com/" style="fill-rule:evenodd;clip-rule:evenodd;stroke-linejoin:round;stroke-miterlimit:2;">
    <g transform="matrix(1,0,0,1,-998.125,-214.026)">
        <g transform="matrix(1,0,0,1,689.625,0)">
            <g transform="matrix(-138.5,0,0,138.5,447,238.271)">
                <rect x="0" y="-0.175" width="1" height="0.35" style="fill:url(#_Linear1);"/>
            </g>
        </g>
        <g transform="matrix(1,0,0,1,689.625,0)">
            <g transform="matrix(1,0,0,1,361.598,245.735)">
                <path d="M0,-10.32L0,-0.007C0,0.024 -0.024,0.048 -0.055,0.048L-2.252,0.048C-2.282,0.048 -2.306,0.024 -2.306,-0.006L-2.306,-10.32C-2.306,-10.347 -2.284,-10.368 -2.257,-10.368L-0.049,-10.368C-0.022,-10.368 0,-10.347 0,-10.32" style="fill:white;fill-rule:nonzero;"/>
            </g>
        </g>
        <g transform="matrix(1,0,0,1,689.625,0)">
            <g transform="matrix(1,0,0,1,388.606,231.863)">
                <path d="M0,0.006L-0.105,0.006C-0.111,0.006 -0.111,0 -0.111,0L0,0.006Z" style="fill:white;fill-rule:nonzero;"/>
            </g>
        </g>
        <g transform="matrix(1,0,0,1,689.625,0)">
            <g transform="matrix(1,0,0,1,388.502,245.607)">
                <path d="M0,-13.736C-0.009,-13.736 -0.009,-13.746 -0.009,-13.746L0.104,-13.736L0,-13.736ZM0.169,-13.859C0.141,-13.886 0.104,-13.915 0.038,-13.915L-10.7,-13.915C-10.728,-13.915 -10.747,-13.886 -10.747,-13.859L-10.747,-12.025C-10.747,-11.997 -10.728,-11.978 -10.7,-11.978L-6.29,-11.978L-6.29,0.122C-6.29,0.151 -6.262,0.179 -6.233,0.179L-3.949,0.179C-3.921,0.179 -3.893,0.151 -3.893,0.122L-3.893,-11.978L0.16,-11.978C0.188,-11.978 0.216,-11.997 0.216,-12.025L0.216,-13.736C0.216,-13.802 0.197,-13.84 0.169,-13.859" style="fill:white;fill-rule:nonzero;"/>
            </g>
        </g>
        <g transform="matrix(1,0,0,1,689.625,0)">
            <g transform="matrix(1,0,0,1,379.138,235.352)">
                <path d="M0,10.374C0,10.406 -0.026,10.432 -0.058,10.432L-2.21,10.432C-2.242,10.432 -2.268,10.406 -2.268,10.374L-2.268,4.367C-2.268,4.067 -2.285,3.79 -2.329,3.48C-2.479,2.443 -2.861,1.75 -4.247,1.75L-4.308,1.75C-4.751,1.772 -5.167,1.889 -5.505,2.088C-6.071,2.426 -6.453,2.781 -6.681,3.18C-6.636,3.53 -6.614,3.851 -6.614,4.189L-6.614,10.507C-6.614,10.536 -6.637,10.559 -6.666,10.559L-8.78,10.559C-8.812,10.559 -8.837,10.533 -8.837,10.501L-8.837,4.982C-8.832,4.001 -8.826,2.992 -9.297,2.365C-9.619,1.938 -10.068,1.772 -10.899,1.772C-11.237,1.772 -11.703,1.889 -12.085,2.072C-12.324,2.166 -12.529,2.304 -12.762,2.515C-12.984,2.72 -13.255,3.053 -13.255,3.463L-13.255,10.374C-13.255,10.406 -13.281,10.432 -13.313,10.432L-15.46,10.432C-15.492,10.432 -15.517,10.406 -15.517,10.374L-15.517,0.133C-15.517,0.104 -15.494,0.082 -15.465,0.082L-14.547,0.082C-14.181,0.082 -13.849,0.32 -13.743,0.664C-13.699,0.813 -13.649,0.941 -13.627,1.007C-12.812,0.253 -11.614,-0.185 -10.351,-0.185C-9.208,-0.185 -8.372,0.125 -7.795,0.758L-7.789,0.752C-7.656,0.907 -7.529,1.084 -7.385,1.323C-6.575,0.353 -4.973,-0.163 -3.803,-0.163C-2.667,-0.163 -0.022,0.226 -0.022,3.812L0,10.374Z" style="fill:white;fill-rule:nonzero;"/>
            </g>
        </g>
        <g transform="matrix(1,0,0,1,689.625,0)">
            <g transform="matrix(1,0,0,1,408.815,231.474)">
                <path d="M0,14.309C-0.022,14.331 -0.109,14.331 -0.148,14.331L-2.297,14.331C-2.392,14.331 -2.425,14.287 -2.441,14.248C-2.879,13.649 -3.246,13.078 -3.534,12.618C-3.761,12.263 -3.938,11.98 -4.055,11.853L-4.104,11.775C-4.476,11.288 -5.347,10.14 -6.516,9.913L-7.375,10.833L-7.375,14.252C-7.375,14.284 -7.401,14.309 -7.433,14.309L-9.603,14.309C-9.634,14.309 -9.66,14.284 -9.66,14.252L-9.66,0.035C-9.66,0.004 -9.634,-0.022 -9.603,-0.022L-7.432,-0.022C-7.401,-0.022 -7.375,0.004 -7.375,0.035L-7.375,8.083L-3.117,3.695C-3.102,3.688 -3.088,3.683 -3.073,3.676L-0.627,3.676C-0.555,3.676 -0.525,3.679 -0.499,3.719C-0.462,3.773 -0.488,3.814 -0.523,3.859L-4.97,8.455C-4.083,8.887 -3.234,9.636 -2.453,10.684L-2.403,10.75C-2.236,10.966 -1.859,11.498 -1.433,12.119C-0.989,12.756 -0.442,13.536 -0.01,14.131C0.039,14.198 0.048,14.263 0,14.309" style="fill:white;fill-rule:nonzero;"/>
            </g>
        </g>
        <g transform="matrix(1,0,0,1,689.625,0)">
            <g transform="matrix(0,-1,-1,0,360.433,231.215)">
                <path d="M-1.38,-1.386C-2.134,-1.386 -2.744,-0.765 -2.744,0C-2.744,0.76 -2.134,1.38 -1.38,1.38C-0.631,1.38 -0.022,0.76 -0.022,0C-0.022,-0.765 -0.631,-1.386 -1.38,-1.386" style="fill:white;fill-rule:nonzero;"/>
            </g>
        </g>
        <g transform="matrix(1,0,0,1,689.625,0)">
            <g transform="matrix(1,0,0,1,394.557,237.569)">
                <path d="M0,5.66C-0.489,6.139 -1.166,6.393 -2.04,6.393C-4.457,6.393 -4.955,4.391 -4.955,2.717C-4.955,0.386 -4.005,-0.752 -2.04,-0.752C-0.113,-0.752 0.865,0.442 0.865,2.811C0.875,4.109 0.583,5.068 0,5.66M-2.04,-2.642C-5.199,-2.642 -7.155,-0.545 -7.155,2.83C-7.155,6.205 -5.199,8.302 -2.04,8.302C1.119,8.302 3.084,6.205 3.084,2.83C3.084,-0.545 1.119,-2.642 -2.04,-2.642" style="fill:white;fill-rule:nonzero;"/>
            </g>
        </g>
        <g transform="matrix(1,0,0,1,689.625,0)">
            <g transform="matrix(1,0,0,1,411.461,242.787)">
                <path d="M0,-4.918C0.517,-5.566 1.25,-5.952 2.078,-6.018C3.037,-6.093 3.639,-5.915 4.165,-5.407C4.363,-5.219 4.532,-4.983 4.701,-4.711C4.786,-4.551 4.786,-4.335 4.692,-4.156C4.607,-3.978 4.457,-3.865 4.269,-3.836L-0.724,-3.141C-0.621,-3.865 -0.404,-4.401 0,-4.918M6.948,-0.235C6.901,-0.292 6.798,-0.254 6.75,-0.254L4.861,0.028C4.795,0.028 4.729,0.075 4.71,0.131C4.25,0.808 3.686,1.146 2.755,1.306C1.692,1.447 0.658,1.005 0.047,0.131C-0.235,-0.235 -0.414,-0.687 -0.555,-1.355L-0.545,-1.392L4.917,-2.144C5.66,-2.257 6.233,-2.633 6.553,-3.197C6.873,-3.771 6.882,-4.485 6.582,-5.162C6.064,-6.262 5.143,-7.118 3.996,-7.569C2.52,-8.152 0.451,-7.86 -0.705,-6.92C-2.002,-5.858 -2.67,-4.495 -2.745,-2.746C-2.745,-2.661 -2.755,-2.577 -2.755,-2.501C-2.764,-2.407 -2.773,-2.323 -2.773,-2.238C-2.773,-1.825 -2.736,-1.486 -2.679,-1.185C-2.313,1.015 -0.696,3.234 2.106,3.234C5.453,3.234 6.732,1.175 6.967,-0.057C6.967,-0.095 7.004,-0.179 6.948,-0.235" style="fill:white;fill-rule:nonzero;"/>
            </g>
        </g>
        <g transform="matrix(1,0,0,1,689.625,0)">
            <g transform="matrix(1,0,0,1,428.998,241.409)">
                <path d="M0,-2.068L0,4.316C0,4.348 -0.025,4.374 -0.057,4.374L-2.188,4.374C-2.216,4.374 -2.24,4.35 -2.24,4.322L-2.24,-0.993C-2.24,-1.004 -2.223,-1.874 -2.284,-2.672C-2.334,-3.293 -2.561,-3.797 -2.927,-4.091C-3.52,-4.579 -4.368,-4.463 -4.379,-4.463C-5.594,-4.346 -6.508,-3.532 -6.968,-3.033L-6.968,4.316C-6.968,4.348 -6.994,4.374 -7.026,4.374L-9.173,4.374C-9.205,4.374 -9.23,4.348 -9.23,4.316L-9.23,-6.119C-9.23,-6.151 -9.205,-6.176 -9.173,-6.176L-7.375,-6.176C-7.343,-6.176 -7.318,-6.151 -7.318,-6.119L-7.318,-5.101C-6.48,-5.948 -5.277,-6.442 -4.019,-6.442C-3.027,-6.442 0,-6.442 0,-2.068" style="fill:white;fill-rule:nonzero;"/>
            </g>
        </g>
        <g transform="matrix(1,0,0,1,689.625,0)">
            <g transform="matrix(1,0,0,1,350.166,239.892)">
                <path d="M0,-3.558C-1.395,2.798 -6.422,6.38 -11.312,7.345C-13.139,7.698 -14.963,7.678 -16.671,7.303C-20.601,6.468 -23.803,3.807 -24.548,-0.043C-25.434,-4.607 -22.687,-6.928 -20.404,-7.343C-18.019,-7.796 -15.877,-6.413 -15.486,-4.494C-15.153,-2.675 -16.246,-1.7 -17.081,-1.548C-17.739,-1.418 -18.591,-1.731 -18.76,-2.529C-18.892,-3.243 -18.614,-3.35 -18.783,-4.091C-18.844,-4.444 -18.988,-4.703 -19.167,-4.886C-19.64,-5.4 -20.458,-5.341 -20.939,-5.158C-21.476,-4.963 -22.721,-4.229 -22.427,-1.954C-22.364,-1.452 -22.18,-0.98 -21.951,-0.574C-21.827,-0.362 -21.685,-0.16 -21.505,0.015C-21.438,0.116 -21.354,0.198 -21.24,0.29C-20.221,1.252 -18.633,1.713 -16.824,1.369C-16.276,1.277 -15.739,1.074 -15.268,0.862C-13.041,-0.194 -11.717,-2.493 -11.87,-5.291C-11.881,-5.468 -11.875,-5.626 -11.802,-5.794C-11.767,-5.869 -11.749,-5.916 -11.703,-6.01C-11.621,-6.132 -11.567,-6.235 -11.467,-6.376C-11.394,-6.452 -11.293,-6.574 -11.211,-6.678C-10.286,-7.715 -7.499,-9.895 -4.154,-10.81L-4.135,-10.81C-3.57,-10.977 -2.939,-11.126 -2.317,-11.191C-1.676,-11.246 -1.053,-11.256 -0.401,-11.2C-0.354,-11.201 -0.298,-11.183 -0.279,-11.165C-0.112,-11.204 0.011,-11.067 0.069,-10.891C0.13,-10.548 0.171,-10.194 0.208,-9.842C0.454,-7.492 0.41,-5.407 0,-3.558" style="fill:white;fill-rule:nonzero;"/>
            </g>
        </g>
    </g>
    <defs>
        <linearGradient id="_Linear1" x1="0" y1="0" x2="1" y2="0" gradientUnits="userSpaceOnUse" gradientTransform="matrix(1,0,0,-1,0,-4.73502e-06)"><stop offset="0" style="stop-color:rgb(17,196,209);stop-opacity:1"/><stop offset="1" style="stop-color:rgb(0,98,173);stop-opacity:1"/></linearGradient>
    </defs>
</svg>
