<svg xmlns="http://www.w3.org/2000/svg" xmlns:xlink="http://www.w3.org/1999/xlink" viewBox="0 0 4845.47 4280.19"><defs><style>.cls-1{fill:url(#linear-gradient);}</style><linearGradient id="linear-gradient" y1="2140.1" x2="4845.47" y2="2140.1" gradientUnits="userSpaceOnUse"><stop offset="0" stop-color="#ffcf35"/><stop offset="0.31" stop-color="#ffb635"/><stop offset="0.65" stop-color="#ff8b00"/><stop offset="1" stop-color="#ec601f"/></linearGradient></defs><g id="Layer_2" data-name="Layer 2"><g id="Layer_1-2" data-name="Layer 1"><path class="cls-1" d="M4804.11,1986.63,3748.27,155.79A309.27,309.27,0,0,0,3480.52,1L1367,0a309.26,309.26,0,0,0-267.9,154.5L41.51,1984.31a309.26,309.26,0,0,0-.15,309.26L1097.21,4124.41A309.23,309.23,0,0,0,1365,4279.16l2113.48,1a309.24,309.24,0,0,0,267.9-154.5L4804,2295.89A309.26,309.26,0,0,0,4804.11,1986.63ZM3348.2,3435.33a309.24,309.24,0,0,1-267.9,154.5l-1316.54-.64A309.23,309.23,0,0,1,1496,3434.43L838.29,2294a309.26,309.26,0,0,1,.15-309.25L1497.27,844.86a309.26,309.26,0,0,1,267.9-154.5l1316.54.64a309.28,309.28,0,0,1,267.75,154.76l548,950.16H2669.1c-197.57,0-357.73,154.09-357.73,344.18h0c0,190.08,160.16,344.17,357.73,344.17H3897.92Z"/></g></g></svg>