<svg id="Layer_1" data-name="Layer 1" xmlns="http://www.w3.org/2000/svg" viewBox="0 0 742.72 363.18"><defs><style>.cls-1{fill:#282828;}</style></defs><title>Artboard 1</title><g id="Layer_2" data-name="Layer 2"><g id="Layer_1-2" data-name="Layer 1-2"><g id="Variation-2"><g id="Logotype"><g id="Group-3"><path id="Fill-1" class="cls-1" d="M258.86,241.56a25.81,25.81,0,0,0-3.16.22,5.82,5.82,0,0,0-5.13,5.82V260c0,3,2.5,5.46,6,5.73.79.06,1.59.09,2.35.09a18.09,18.09,0,0,0,2.12-.08c3.58-.28,5.77-2.26,6.16-5.57a69.59,69.59,0,0,0,0-13.07,5.84,5.84,0,0,0-5-5.34A26.52,26.52,0,0,0,258.86,241.56ZM249.76,281c-1.59,0-4.6-.86-4.6-4.13v-31c0-3.13,2.35-5.83,3.93-6.89a16.23,16.23,0,0,1,6.12-2,40.12,40.12,0,0,1,4.09-.27,20.61,20.61,0,0,1,4.64.5c4.54,1,7.3,4,8.2,8.69a18.6,18.6,0,0,1,.33,3.64v1.17c0,2.65.08,5.39,0,8.09a16.38,16.38,0,0,1-1,4.9c-1.36,3.68-4.16,5.93-8.32,6.7a18.62,18.62,0,0,1-3.58.32,21.82,21.82,0,0,1-3.12-.22,8.39,8.39,0,0,1-6.07-3.45V281Z"/></g><g id="Group-6"><path id="Fill-4" class="cls-1" d="M373.77,280.84a3.53,3.53,0,0,1-.65,0l-.78-.11,4.6-11.09a4.2,4.2,0,0,0,.45-2.76c-2.77-6.85-5.41-13.44-8.1-20.17l-2.62-6.56c-.47-1.17-.74-2-.34-2.57s1.28-.6,2.47-.6a2.54,2.54,0,0,1,2.69,2c.63,1.58,7.78,19.61,9.11,22.91l9.14-22.72a3.33,3.33,0,0,1,3-2.39,3.81,3.81,0,0,1,1.42.31,1.34,1.34,0,0,1,1,1.61.58.58,0,0,1-.05.14l-15.35,38a6.29,6.29,0,0,1-6,4"/></g><path id="Fill-7" class="cls-1" d="M291.42,255c-2,0-3.81.06-5.11.18-3.33.3-4.6,1.54-4.7,4.59v1.88a4.06,4.06,0,0,0,4,4.14h.24c.94,0,1.72.05,2.45.05s1.53,0,2.22-.06a8.25,8.25,0,0,0,6.7-3.89c1-1.53,1-3.21,1-5V256a4.21,4.21,0,0,0,0-.71,6.43,6.43,0,0,0-.78-.08C295.7,255.05,293.5,255,291.42,255Zm11.2,15.68c-1.54,0-4.45-.87-4.45-4.16v-.21l-.08.08a10.71,10.71,0,0,1-8.31,4.26h-1.43a26.69,26.69,0,0,1-4.37-.31,8.32,8.32,0,0,1-7.07-6.2,12.81,12.81,0,0,1,0-7.36,7.76,7.76,0,0,1,6.91-5.9,71.59,71.59,0,0,1,7.88-.41c2,0,4,.06,5.7.19h.39a.66.66,0,0,0,.37,0,3.32,3.32,0,0,0,0-.89,32.53,32.53,0,0,0-.54-5c-.3-1.49-1.33-2.41-3.14-2.82a17.07,17.07,0,0,0-3.64-.42,11.2,11.2,0,0,0-8.55,3.5,2.65,2.65,0,0,1-1.8,1.13,1.42,1.42,0,0,1-.74-.22,11.9,11.9,0,0,1-2-1.55c-.34-.33-.5-1,.21-2a14.54,14.54,0,0,1,6.62-4.68,21,21,0,0,1,6.34-.92,24.66,24.66,0,0,1,5,.51,8.34,8.34,0,0,1,6.71,6.37,22.44,22.44,0,0,1,.57,4.6c.25,6,0,21.67,0,21.83v.6Z"/><path id="Fill-9" class="cls-1" d="M314.55,270.66c-1.57,0-4.52-.85-4.52-4.08V236.82h.62c1.59,0,4.6.81,4.6,3.89v.06h.05a16.65,16.65,0,0,1,2.93-2.36,10.8,10.8,0,0,1,5.73-1.49,19,19,0,0,1,2,.13,13.86,13.86,0,0,1,3.13.67,1.49,1.49,0,0,1,1.12,1.79,1.29,1.29,0,0,1-.07.21,5.47,5.47,0,0,1-.67,1.4v.07a1.42,1.42,0,0,1-1.31.85,4.32,4.32,0,0,1-1-.15,15.64,15.64,0,0,0-3.28-.38,10,10,0,0,0-3.74.67,18.06,18.06,0,0,0-2.9,1.57,4.45,4.45,0,0,0-2,4.13v22.83Z"/><path id="Fill-11" class="cls-1" d="M338.82,270.2c-1.56,0-4.52-.76-4.52-3.68v-29.8h.64a4.41,4.41,0,0,1,4.5,4.32.48.48,0,0,1,0,.17v29Z"/><path id="Fill-13" class="cls-1" d="M354.2,270.2c-1.5,0-4.33-.76-4.33-3.68V242.2h-3.78c-.77,0-1.18-.86-1.18-1.49v-2.45c0-.64.39-1,1.18-1h3.78v-9.2h.62c1.5,0,4.34.56,4.34,3.68v5.52h7.37c1.08,0,1.31.53,1.31,1v2.45a1.52,1.52,0,0,1-1.31,1.49h-7.37v28Z"/><path id="Fill-15" class="cls-1" d="M336.86,230.27a3.53,3.53,0,1,1,3.56-3.52,3.54,3.54,0,0,1-3.56,3.52"/></g></g><path class="cls-1" d="M442.9,260.87c0,6.82-5.18,9.45-11.14,9.45h-2.63c-6,0-9.9-3-10.89-8.14-.13-.59.2-1,.86-1h1.64a.9.9,0,0,1,.92.88s0,0,0,0c.85,3.54,3.14,5,7.47,5h2.63c4.45,0,7.93-1.38,7.93-6.3s-4.26-5.44-9.12-6c-7.08-.79-11.8-2-11.8-9.12,0-6.23,4.2-8.72,10.69-8.72h1.9c6.1,0,10.23,2.75,10.5,8.72,0,.66-.2,1-.92,1h-1.45a.94.94,0,0,1-1-.87v-.13c-.33-3.93-2.75-5.77-7.28-5.77h-1.64c-4.72,0-7.61,1.38-7.61,5.84,0,4.72,3.41,5.51,8.59,6.1C437.33,252.74,442.9,253.53,442.9,260.87Z"/><path class="cls-1" d="M449.46,258.64V238.2a.88.88,0,0,1,.72-1h1.52a.87.87,0,0,1,1,.72.66.66,0,0,1,0,.28v20.27c0,5.7,1.31,8.65,7.21,8.65h1A11.19,11.19,0,0,0,470.6,262V238.2a.87.87,0,0,1,.7-1h1.55a.86.86,0,0,1,1,.7.76.76,0,0,1,0,.3V269a.86.86,0,0,1-.71,1,.71.71,0,0,1-.29,0H471.6a.87.87,0,0,1-1-.71,1.41,1.41,0,0,1,0-.29v-4.13a12,12,0,0,1-10.17,5.38h-.52C452.2,270.25,449.46,266.25,449.46,258.64Z"/><path class="cls-1" d="M507.77,248.87v9.38c0,7.67-4.79,12.07-11.61,12.07H493.8c-4.92,0-7.61-2-8.92-5.38V269a.87.87,0,0,1-.74,1,.57.57,0,0,1-.26,0h-1.24a.88.88,0,0,1-1-.74,1.13,1.13,0,0,1,0-.26V225.06a.88.88,0,0,1,.72-1h1.52a.87.87,0,0,1,1,.72.66.66,0,0,1,0,.28v16.86c1.31-3.28,4-5,8.92-5h2.4C503,236.93,507.77,241.07,507.77,248.87Zm-3.22.2c0-6.1-3-9-8.46-9h-2.75c-5.45,0-8.46,2.89-8.46,9v9.44c0,5.64,3,8.66,8.46,8.66h2.75c5.44,0,8.46-3,8.46-8.66Z"/><path class="cls-1" d="M538.06,260.87c0,6.82-5.18,9.45-11.15,9.45h-2.62c-6,0-9.9-3-10.89-8.14-.13-.59.2-1,.86-1h1.64a.9.9,0,0,1,.92.88s0,0,0,0c.85,3.54,3.14,5,7.47,5h2.62c4.46,0,7.94-1.38,7.94-6.3s-4.26-5.44-9.12-6c-7.08-.79-11.8-2-11.8-9.12,0-6.23,4.2-8.72,10.69-8.72h1.9c6.1,0,10.23,2.75,10.49,8.72,0,.66-.19,1-.91,1h-1.45a.94.94,0,0,1-1-.87v-.13c-.33-3.93-2.76-5.77-7.28-5.77h-1.64c-4.72,0-7.61,1.38-7.61,5.84,0,4.72,3.41,5.51,8.59,6.1C532.49,252.74,538.06,253.53,538.06,260.87Z"/><path class="cls-1" d="M550.72,240.28v19.41c0,5.18,1.25,7.28,5.64,7.41.59-.06.85.4.85,1v1.1a.86.86,0,0,1-.81.92h-.11c-6.43-.13-8.72-3.48-8.72-10.3V240.28H544a.88.88,0,0,1-1-.74,1.13,1.13,0,0,1,0-.26v-1c0-.73.33-1.05,1-1.05h3.54v-3.81a.87.87,0,0,1,.7-1h1.55a.87.87,0,0,1,1,.72.66.66,0,0,1,0,.28v3.78h5.39c.72,0,1,.32,1,1v1.11a.87.87,0,0,1-.74,1,.57.57,0,0,1-.26,0Z"/><path class="cls-1" d="M580.82,240.54a9.93,9.93,0,0,0-3.34-.52h-.79a11.25,11.25,0,0,0-9.64,5.18V269a.86.86,0,0,1-.71,1,.71.71,0,0,1-.29,0H564.8a.87.87,0,0,1-1-.71,1.41,1.41,0,0,1,0-.29V238.2a.87.87,0,0,1,.7-1h1.55a.86.86,0,0,1,1,.7.76.76,0,0,1,0,.3v4.13A12.28,12.28,0,0,1,577.74,237a18.47,18.47,0,0,1,4.26.53.9.9,0,0,1,.64,1.11.35.35,0,0,1,0,.13l-.52,1.38a.84.84,0,0,1-1.1.51A.51.51,0,0,1,580.82,240.54Z"/><path class="cls-1" d="M610.53,270h-2.1c-.72,0-1-.66-1-1.58v-3.93a11,11,0,0,1-9.9,5.84h-3c-5.9,0-9.51-3.28-9.51-9.78s3.74-9.44,9.38-9.44h13v-2c0-7-1.7-9-8-9h-1.24a16.78,16.78,0,0,0-8.14,1.77c-.59.33-1.18.46-1.37-.07l-.72-1.38c-.2-.39-.13-.72.52-1.11,2.62-1.71,6.1-2.3,9.71-2.3h1.24c8.14,0,11.22,3.74,11.22,12.07v19.41a4.72,4.72,0,0,0,.13,1C610.79,269.66,610.86,270,610.53,270Zm-3.15-10.1v-5.84H594.46c-4.06,0-6.29,1.58-6.29,6.49s2.23,6.63,6.29,6.63h2.74a10,10,0,0,0,10.18-7.28Z"/><path class="cls-1" d="M623.78,240.28v19.41c0,5.18,1.25,7.28,5.64,7.41.59-.06.85.4.85,1l-.07,1.1a.86.86,0,0,1-.81.92h-.11c-6.43-.13-8.72-3.48-8.72-10.3V240.28H617a.88.88,0,0,1-1-.74,1.13,1.13,0,0,1,0-.26v-1c0-.73.33-1.05,1-1.05h3.54v-3.81a.87.87,0,0,1,.7-1h1.55a.87.87,0,0,1,1,.72.66.66,0,0,1,0,.28v3.78h5.51c.72,0,1,.32,1,1v1.11a.87.87,0,0,1-.74,1,.57.57,0,0,1-.26,0Z"/><path class="cls-1" d="M660.51,248.8v4.14a2,2,0,0,1-2,2h-20v3.87c0,5.31,3,8.33,8.46,8.33h2.17c4.59,0,5.83-1.9,7.87-4.33.45-.53.72-.66,1.37-.2l.86.59c.65.46.59.86.19,1.38-2.36,2.89-4.72,5.71-10.29,5.71h-2.17c-6.88,0-11.8-4.33-11.8-11.68v-9.77c0-7.8,4.92-11.94,11.8-11.94h2.17C654.74,236.93,660.51,241.13,660.51,248.8Zm-3.35.27c0-6.1-3.47-9-8.06-9h-2.17c-5.44,0-8.46,3-8.46,9v3H657.2Z"/><polygon class="cls-1" points="163.72 266.42 161.28 267.82 161.72 268.08 163.72 266.93 163.72 269.19 245.16 222.18 245.16 217.09 163.72 264.12 163.72 266.42"/><polygon class="cls-1" points="163.72 250.97 147.9 260.11 148.68 260.55 163.72 251.87 163.72 253.76 245.16 206.75 245.16 202.03 163.72 249.04 163.72 250.97"/><polygon class="cls-1" points="163.72 235.51 134.53 252.38 135.63 253.01 163.72 236.79 163.72 238.32 245.16 191.31 245.16 186.97 163.72 233.99 163.72 235.51"/><path class="cls-1" d="M245.2,128.08l-1.2-.69L178.75,165l-8.46-4.84,19.81-11.48v-2.87L233,121.07l-2.1-1.21L190.1,143.42V141l-26.53,15.32L154.42,151l65.22-37.65-1.77-1L152.66,150l-8.91-5.14,14.45-8.35-2.7-1.56,50.75-29.3-1.43-.83-50.75,29.3-2.57-1.48L137,141v3l-13.59,7.84-1-.57L82.2,174.45v4l43.65-25.25-1-.57,12.15-7v3.07l8.94,5.16-9.46,5.46-.66-.38-53.62,31v3.57l56.71-32.75-.66-.38,9.46-5.46,9.15,5.32L137,171.62v2.08L82.2,205.34v3.19L137,176.89v2.44l8.51,4.87L82.2,220.79v1.41l1.24.71,64.5-37.23,8.79,5.07L137,202v2.59L94.38,229.2l2.1,1.22L137,207v3l26.57-15.34,8,4.63-7.87,4.55v.77l-56,32.31,1.77,1,54.19-31.29v.76l11-6.33,8.7,5-14.16,8.24,1.25.72-6.72,3.88v1.15l-42.59,24.58,1.44.83,41.14-23.75v1.14L173.86,217l2,1.18,14.2-8.18v-2.37l55.14-31.79v-4l-55.1,31.83V202.2l-8.7-5,63.8-36.8v-3.57l-66.85,38.6-8-4.63,19.75-11.45v-2.61L245.2,145v-3.19l-55.1,31.78v-2l-8.9-5.15,64-36.94Zm-101.45,47.4L163.57,164l8.46,4.88-9.44,5.46h0l-10.39,6Zm39.64,0-19.91,11.39-8.83-5.1,9.11-5.26h0l10.7-6.18Z"/><polygon class="cls-1" points="111.45 144.93 192.88 97.91 191.78 97.27 110.34 144.28 109.03 143.53 82.2 159 82.2 163.34 112.78 145.69 111.45 144.93"/><polygon class="cls-1" points="98.06 137.22 179.51 90.19 178.74 89.73 97.28 136.76 95.63 135.81 82.2 143.56 82.2 148.28 99.72 138.16 98.06 137.22"/><polygon class="cls-1" points="84.66 129.5 166.13 82.47 165.69 82.2 84.22 129.25 82.22 128.1 82.2 128.12 82.2 133.22 86.66 130.65 84.66 129.5"/></g></g></svg>