<svg xmlns="http://www.w3.org/2000/svg" width="34" height="34" viewBox="0 0 34 34">
  <g id="Component_32_2" data-name="Component 32 – 2" transform="translate(0)">
    <rect id="Rectangle_45" data-name="Rectangle 45" width="34" height="34" transform="translate(0)" fill="none"/>
    <g id="Group_86" data-name="Group 86" transform="translate(0 3.039)">
      <path id="twitter" d="M.623,27.049A19.913,19.913,0,0,0,11.315,30.13,19.554,19.554,0,0,0,31.151,10.249C32.5,9.1,34.082,6.9,34.082,4.751a1.074,1.074,0,0,0-1.616-.925,4.435,4.435,0,0,1-3.606.6A7.658,7.658,0,0,0,19.79,3.21a7.368,7.368,0,0,0-4,6.906,17.768,17.768,0,0,1-11.525-6.3,1.074,1.074,0,0,0-1.753.143,7.473,7.473,0,0,0-.167,7.38,1.116,1.116,0,0,0-.932,1.111,7.563,7.563,0,0,0,2.635,5.712,1.071,1.071,0,0,0-.275,1.111,7.7,7.7,0,0,0,4.356,4.667,12.485,12.485,0,0,1-6.8,1.135,1.073,1.073,0,0,0-.706,1.969ZM20.808,5.1C22.555,4.155,19.042,6.05,20.808,5.1Z" transform="translate(-0.124 -2.251)" fill="#fff"/>
    </g>
  </g>
</svg>
