<svg xmlns="http://www.w3.org/2000/svg" width="34" height="34" viewBox="0 0 34 34">
  <g id="Component_33_2" data-name="Component 33 – 2" transform="translate(0)">
    <rect id="Rectangle_46" data-name="Rectangle 46" width="34" height="34" transform="translate(0)" fill="none"/>
    <g id="XMLID_496_" transform="translate(0 2.196)">
      <path id="XMLID_497_" d="M.6,33.577,8.424,36.5l3.029,9.74a.921.921,0,0,0,1.463.44l4.361-3.556a1.3,1.3,0,0,1,1.586-.044l7.866,5.711a.922.922,0,0,0,1.445-.558l5.763-27.719A.922.922,0,0,0,32.7,19.464L.591,31.852A.923.923,0,0,0,.6,33.577Zm10.365,1.366,15.292-9.418a.266.266,0,0,1,.322.422L13.958,37.677a2.616,2.616,0,0,0-.811,1.565l-.43,3.186a.4.4,0,0,1-.772.056l-1.653-5.809A1.54,1.54,0,0,1,10.965,34.943Z" transform="translate(0 -19.401)" fill="#fff"/>
    </g>
  </g>
</svg>
