<svg id="reddit" xmlns="http://www.w3.org/2000/svg" width="30.313" height="30.313" viewBox="0 0 30.313 30.313">
  <path id="Path_122" data-name="Path 122" d="M197.723,341.432a5.916,5.916,0,0,1-6.341,0,.409.409,0,0,0-.579.579c1.076,1.076,3.143,1.161,3.749,1.161s2.67-.085,3.75-1.161a.414.414,0,0,0,0-.579A.408.408,0,0,0,197.723,341.432Zm0,0" transform="translate(-179.393 -321.104)" fill="#fff"/>
  <path id="Path_123" data-name="Path 123" d="M173.807,257.579a1.579,1.579,0,1,0-1.579,1.579A1.582,1.582,0,0,0,173.807,257.579Zm0,0" transform="translate(-160.545 -240.844)" fill="#fff"/>
  <path id="Path_124" data-name="Path 124" d="M15.156,0A15.156,15.156,0,1,0,30.313,15.156,15.158,15.158,0,0,0,15.156,0ZM23.95,17.178a4.4,4.4,0,0,1,.052.664C24,21.243,20.043,24,15.159,24s-8.842-2.756-8.842-6.157a4.446,4.446,0,0,1,.052-.67A2.209,2.209,0,1,1,8.8,13.562a10.838,10.838,0,0,1,6.017-1.873c0-.03,1.1-5.287,1.1-5.287a.389.389,0,0,1,.17-.248.394.394,0,0,1,.3-.055l3.674.782a1.579,1.579,0,1,1-.161.773l-3.289-.7L15.6,11.692a10.813,10.813,0,0,1,5.911,1.876,2.208,2.208,0,0,1,3.744,1.588A2.22,2.22,0,0,1,23.95,17.178Zm0,0" fill="#fff"/>
  <path id="Path_125" data-name="Path 125" d="M289.579,256a1.579,1.579,0,1,0,1.579,1.579A1.582,1.582,0,0,0,289.579,256Zm0,0" transform="translate(-270.949 -240.844)" fill="#fff"/>
</svg>
