<svg id="instagram" xmlns="http://www.w3.org/2000/svg" width="30.313" height="30.313" viewBox="0 0 30.313 30.313">
  <path id="Path_126" data-name="Path 126" d="M212.8,209.9a2.9,2.9,0,1,1-2.9-2.9A2.9,2.9,0,0,1,212.8,209.9Zm0,0" transform="translate(-194.745 -194.745)" fill="#fff"/>
  <path id="Path_127" data-name="Path 127" d="M149.4,137.49a2.882,2.882,0,0,0-1.652-1.652,4.815,4.815,0,0,0-1.616-.3c-.918-.042-1.193-.051-3.517-.051s-2.6.009-3.517.051a4.818,4.818,0,0,0-1.616.3,2.883,2.883,0,0,0-1.652,1.652,4.816,4.816,0,0,0-.3,1.616c-.042.918-.051,1.193-.051,3.517s.009,2.6.051,3.517a4.815,4.815,0,0,0,.3,1.616,2.882,2.882,0,0,0,1.652,1.652,4.809,4.809,0,0,0,1.616.3c.918.042,1.193.051,3.517.051s2.6-.009,3.517-.051a4.809,4.809,0,0,0,1.616-.3,2.882,2.882,0,0,0,1.652-1.652,4.82,4.82,0,0,0,.3-1.616c.042-.918.051-1.193.051-3.517s-.009-2.6-.051-3.517A4.809,4.809,0,0,0,149.4,137.49Zm-6.784,9.6a4.469,4.469,0,1,1,4.469-4.469A4.469,4.469,0,0,1,142.619,147.092Zm4.646-8.07a1.044,1.044,0,1,1,1.044-1.044A1.044,1.044,0,0,1,147.265,139.022Zm0,0" transform="translate(-127.463 -127.467)" fill="#fff"/>
  <path id="Path_128" data-name="Path 128" d="M15.156,0A15.156,15.156,0,1,0,30.312,15.156,15.158,15.158,0,0,0,15.156,0Zm8.651,18.744a6.385,6.385,0,0,1-.4,2.113A4.45,4.45,0,0,1,20.857,23.4a6.39,6.39,0,0,1-2.112.4c-.928.042-1.225.052-3.588.052s-2.66-.01-3.588-.052a6.39,6.39,0,0,1-2.112-.4A4.45,4.45,0,0,1,6.91,20.857a6.384,6.384,0,0,1-.4-2.112c-.043-.928-.053-1.225-.053-3.588s.01-2.66.052-3.588a6.386,6.386,0,0,1,.4-2.113A4.453,4.453,0,0,1,9.456,6.91a6.391,6.391,0,0,1,2.113-.4c.928-.042,1.225-.052,3.588-.052s2.66.01,3.588.053a6.392,6.392,0,0,1,2.113.4A4.451,4.451,0,0,1,23.4,9.456a6.385,6.385,0,0,1,.4,2.113c.042.928.052,1.225.052,3.588S23.849,17.816,23.807,18.744Zm0,0" fill="#fff"/>
</svg>
